<svg xmlns="http://www.w3.org/2000/svg" xmlns:xlink="http://www.w3.org/1999/xlink" width="400" zoomAndPan="magnify" viewBox="0 0 300 149.999998" height="200" preserveAspectRatio="xMidYMid meet" version="1.0"><defs><g/><clipPath id="id1"><path d="M 204.597656 81.375 L 237.597656 81.375 L 237.597656 133.875 L 204.597656 133.875 Z M 204.597656 81.375 " clip-rule="nonzero"/></clipPath><clipPath id="id2"><path d="M 204.910156 101.410156 L 257.410156 101.410156 L 257.410156 134.410156 L 204.910156 134.410156 Z M 204.910156 101.410156 " clip-rule="nonzero"/></clipPath><clipPath id="id3"><path d="M 204.597656 101.40625 L 237.597656 101.40625 L 237.597656 134.40625 L 204.597656 134.40625 Z M 204.597656 101.40625 " clip-rule="nonzero"/></clipPath></defs><g fill="#ffffff" fill-opacity="1"><g transform="translate(38.028003, 71.478864)"><g><path d="M 39.5 -15.75 C 39.5 -12.53125 38.679688 -9.671875 37.046875 -7.171875 C 35.421875 -4.679688 33.070312 -2.742188 30 -1.359375 C 26.925781 0.015625 23.320312 0.703125 19.1875 0.703125 C 15.726562 0.703125 12.828125 0.460938 10.484375 -0.015625 C 8.148438 -0.503906 5.71875 -1.347656 3.1875 -2.546875 L 3.1875 -15.03125 C 5.863281 -13.664062 8.640625 -12.597656 11.515625 -11.828125 C 14.398438 -11.054688 17.050781 -10.671875 19.46875 -10.671875 C 21.550781 -10.671875 23.078125 -11.03125 24.046875 -11.75 C 25.015625 -12.476562 25.5 -13.410156 25.5 -14.546875 C 25.5 -15.253906 25.300781 -15.875 24.90625 -16.40625 C 24.519531 -16.9375 23.894531 -17.472656 23.03125 -18.015625 C 22.164062 -18.554688 19.867188 -19.664062 16.140625 -21.34375 C 12.753906 -22.882812 10.21875 -24.375 8.53125 -25.8125 C 6.84375 -27.257812 5.585938 -28.914062 4.765625 -30.78125 C 3.953125 -32.644531 3.546875 -34.851562 3.546875 -37.40625 C 3.546875 -42.1875 5.28125 -45.910156 8.75 -48.578125 C 12.226562 -51.253906 17.003906 -52.59375 23.078125 -52.59375 C 28.453125 -52.59375 33.925781 -51.347656 39.5 -48.859375 L 35.21875 -38.046875 C 30.363281 -40.273438 26.175781 -41.390625 22.65625 -41.390625 C 20.832031 -41.390625 19.507812 -41.066406 18.6875 -40.421875 C 17.863281 -39.785156 17.453125 -38.992188 17.453125 -38.046875 C 17.453125 -37.035156 17.976562 -36.125 19.03125 -35.3125 C 20.082031 -34.507812 22.9375 -33.046875 27.59375 -30.921875 C 32.0625 -28.910156 35.160156 -26.753906 36.890625 -24.453125 C 38.628906 -22.148438 39.5 -19.25 39.5 -15.75 Z M 39.5 -15.75 "/></g></g></g><g fill="#ffffff" fill-opacity="1"><g transform="translate(73.400064, 71.478864)"><g><path d="M 54.109375 -26 C 54.109375 -14.25 50.375 -6.328125 42.90625 -2.234375 L 55.5625 12.34375 L 38.125 12.34375 L 28.96875 0.8125 L 28.9375 0.78125 L 28.9375 0.75 L 28.90625 0.703125 C 20.769531 0.703125 14.53125 -1.578125 10.1875 -6.140625 C 5.851562 -10.703125 3.6875 -17.34375 3.6875 -26.0625 C 3.6875 -34.6875 5.84375 -41.273438 10.15625 -45.828125 C 14.46875 -50.378906 20.738281 -52.65625 28.96875 -52.65625 C 37.21875 -52.65625 43.46875 -50.394531 47.71875 -45.875 C 51.976562 -41.363281 54.109375 -34.738281 54.109375 -26 Z M 18.4375 -26 C 18.4375 -15.96875 21.925781 -10.953125 28.90625 -10.953125 C 32.445312 -10.953125 35.070312 -12.171875 36.78125 -14.609375 C 38.5 -17.046875 39.359375 -20.84375 39.359375 -26 C 39.359375 -31.175781 38.488281 -35 36.75 -37.46875 C 35.019531 -39.9375 32.425781 -41.171875 28.96875 -41.171875 C 21.945312 -41.171875 18.4375 -36.113281 18.4375 -26 Z M 18.4375 -26 "/></g></g></g><g fill="#ffffff" fill-opacity="1"><g transform="translate(124.726985, 71.478864)"><g><path d="M 49.6875 -51.84375 L 49.6875 -20.640625 C 49.6875 -13.859375 47.765625 -8.601562 43.921875 -4.875 C 40.078125 -1.15625 34.539062 0.703125 27.3125 0.703125 C 20.238281 0.703125 14.800781 -1.101562 11 -4.71875 C 7.207031 -8.332031 5.3125 -13.53125 5.3125 -20.3125 L 5.3125 -51.84375 L 19.390625 -51.84375 L 19.390625 -21.421875 C 19.390625 -17.753906 20.078125 -15.09375 21.453125 -13.4375 C 22.828125 -11.78125 24.847656 -10.953125 27.515625 -10.953125 C 30.378906 -10.953125 32.453125 -11.773438 33.734375 -13.421875 C 35.023438 -15.066406 35.671875 -17.753906 35.671875 -21.484375 L 35.671875 -51.84375 Z M 49.6875 -51.84375 "/></g></g></g><g fill="#ffffff" fill-opacity="1"><g transform="translate(173.146576, 71.478864)"><g><path d="M 37.40625 0 L 34.859375 -9.71875 L 18.015625 -9.71875 L 15.390625 0 L 0 0 L 16.921875 -52.0625 L 35.609375 -52.0625 L 52.734375 0 Z M 31.953125 -21.203125 L 29.71875 -29.71875 C 29.195312 -31.601562 28.5625 -34.046875 27.8125 -37.046875 C 27.070312 -40.054688 26.582031 -42.210938 26.34375 -43.515625 C 26.132812 -42.304688 25.71875 -40.316406 25.09375 -37.546875 C 24.46875 -34.785156 23.078125 -29.335938 20.921875 -21.203125 Z M 31.953125 -21.203125 "/></g></g></g><g fill="#ffffff" fill-opacity="1"><g transform="translate(219.332502, 71.478864)"><g><path d="M 19.609375 -18.859375 L 19.609375 0 L 5.609375 0 L 5.609375 -51.84375 L 22.59375 -51.84375 C 36.675781 -51.84375 43.71875 -46.738281 43.71875 -36.53125 C 43.71875 -30.519531 40.785156 -25.875 34.921875 -22.59375 L 50.03125 0 L 34.15625 0 L 23.15625 -18.859375 Z M 19.609375 -29.390625 L 22.234375 -29.390625 C 27.128906 -29.390625 29.578125 -31.554688 29.578125 -35.890625 C 29.578125 -39.453125 27.175781 -41.234375 22.375 -41.234375 L 19.609375 -41.234375 Z M 19.609375 -29.390625 "/></g></g></g><g fill="#ffffff" fill-opacity="1"><g transform="translate(38.028003, 134.859234)"><g><path d="M 5.609375 0 L 5.609375 -51.84375 L 19.609375 -51.84375 L 19.609375 -11.3125 L 39.578125 -11.3125 L 39.578125 0 Z M 5.609375 0 "/></g></g></g><g fill="#ffffff" fill-opacity="1"><g transform="translate(73.754617, 134.859234)"><g><path d="M 5.609375 0 L 5.609375 -51.84375 L 19.6875 -51.84375 L 19.6875 0 Z M 5.609375 0 "/></g></g></g><g fill="#ffffff" fill-opacity="1"><g transform="translate(92.498174, 134.859234)"><g><path d="M 54.96875 0 L 36.59375 0 L 17.65625 -36.53125 L 17.34375 -36.53125 C 17.789062 -30.78125 18.015625 -26.394531 18.015625 -23.375 L 18.015625 0 L 5.609375 0 L 5.609375 -51.84375 L 23.90625 -51.84375 L 42.765625 -15.8125 L 42.984375 -15.8125 C 42.648438 -21.039062 42.484375 -25.238281 42.484375 -28.40625 L 42.484375 -51.84375 L 54.96875 -51.84375 Z M 54.96875 0 "/></g></g></g><g fill="#ffffff" fill-opacity="1"><g transform="translate(146.519693, 134.859234)"><g><path d="M 49.890625 0 L 34.078125 0 L 23.828125 -19.828125 L 19.6875 -17.34375 L 19.6875 0 L 5.609375 0 L 5.609375 -51.84375 L 19.6875 -51.84375 L 19.6875 -29.328125 C 20.394531 -30.722656 21.820312 -32.929688 23.96875 -35.953125 L 34.859375 -51.84375 L 50.171875 -51.84375 L 33.828125 -28.625 Z M 49.890625 0 "/></g></g></g><g clip-path="url(#id1)"><path fill="#00e8b4" d="M 215.601562 82.316406 C 217.289062 81.75 219.21875 81.378906 221.105469 81.378906 C 222.992188 81.378906 224.808594 81.695312 226.484375 82.265625 C 226.519531 82.28125 226.554688 82.28125 226.589844 82.300781 C 232.878906 84.574219 237.507812 90.574219 237.597656 97.859375 L 237.597656 133.867188 L 204.597656 133.867188 L 204.597656 97.886719 C 204.6875 90.535156 209.246094 84.539062 215.601562 82.316406 " fill-opacity="1" fill-rule="nonzero"/></g><g clip-path="url(#id2)"><path fill="#5965f6" d="M 256.464844 112.414062 C 257.035156 114.101562 257.40625 116.03125 257.40625 117.917969 C 257.40625 119.804688 257.085938 121.621094 256.519531 123.296875 C 256.5 123.332031 256.5 123.367188 256.484375 123.402344 C 254.210938 129.691406 248.210938 134.320312 240.925781 134.410156 L 204.914062 134.410156 L 204.914062 101.410156 L 240.898438 101.410156 C 248.246094 101.5 254.246094 106.058594 256.464844 112.414062 " fill-opacity="1" fill-rule="nonzero"/></g><g clip-path="url(#id3)"><path fill="#5e17eb" d="M 204.597656 101.40625 L 237.597656 101.40625 L 237.597656 134.40625 L 204.597656 134.40625 L 204.597656 101.40625 " fill-opacity="1" fill-rule="nonzero"/></g></svg>